<mxfile host="app.diagrams.net" agent="Mozilla/5.0 (Windows NT 10.0; Win64; x64) AppleWebKit/537.36 (KHTML, like Gecko) Chrome/131.0.0.0 Safari/537.36" version="25.0.1">
  <diagram id="R2lEEEUBdFMjLlhIrx00" name="Page-1">
    <mxGraphModel dx="2140" dy="618" grid="1" gridSize="10" guides="1" tooltips="1" connect="1" arrows="1" fold="1" page="1" pageScale="1" pageWidth="850" pageHeight="1100" math="0" shadow="0" extFonts="Permanent Marker^https://fonts.googleapis.com/css?family=Permanent+Marker">
      <root>
        <mxCell id="0" />
        <mxCell id="1" parent="0" />
        <mxCell id="nY40BCKHnyfytQZV_Jhc-16" value="Client_id" style="swimlane;fontStyle=0;childLayout=stackLayout;horizontal=1;startSize=26;horizontalStack=0;resizeParent=1;resizeParentMax=0;resizeLast=0;collapsible=1;marginBottom=0;align=center;fontSize=14;" parent="1" vertex="1">
          <mxGeometry x="40" y="1200" width="170" height="116" as="geometry" />
        </mxCell>
        <mxCell id="nY40BCKHnyfytQZV_Jhc-18" value="name (Имя)&lt;div&gt;&lt;br&gt;&lt;/div&gt;" style="text;strokeColor=none;fillColor=none;spacingLeft=4;spacingRight=4;overflow=hidden;rotatable=0;points=[[0,0.5],[1,0.5]];portConstraint=eastwest;fontSize=12;whiteSpace=wrap;html=1;" parent="nY40BCKHnyfytQZV_Jhc-16" vertex="1">
          <mxGeometry y="26" width="170" height="30" as="geometry" />
        </mxCell>
        <mxCell id="nY40BCKHnyfytQZV_Jhc-19" value="email (Электронная почта)&lt;div&gt;&lt;br&gt;&lt;/div&gt;" style="text;strokeColor=none;fillColor=none;spacingLeft=4;spacingRight=4;overflow=hidden;rotatable=0;points=[[0,0.5],[1,0.5]];portConstraint=eastwest;fontSize=12;whiteSpace=wrap;html=1;" parent="nY40BCKHnyfytQZV_Jhc-16" vertex="1">
          <mxGeometry y="56" width="170" height="30" as="geometry" />
        </mxCell>
        <mxCell id="TDcTn4Fuq33Ib6oFSJA6-15" value="Phone (Номер Телефона)&lt;div&gt;&lt;br&gt;&lt;/div&gt;" style="text;strokeColor=none;fillColor=none;spacingLeft=4;spacingRight=4;overflow=hidden;rotatable=0;points=[[0,0.5],[1,0.5]];portConstraint=eastwest;fontSize=12;whiteSpace=wrap;html=1;" parent="nY40BCKHnyfytQZV_Jhc-16" vertex="1">
          <mxGeometry y="86" width="170" height="30" as="geometry" />
        </mxCell>
        <mxCell id="nY40BCKHnyfytQZV_Jhc-67" style="edgeStyle=orthogonalEdgeStyle;rounded=0;orthogonalLoop=1;jettySize=auto;html=1;entryX=0;entryY=0.5;entryDx=0;entryDy=0;startArrow=oval;startFill=1;endArrow=ERmany;endFill=0;" parent="1" source="nY40BCKHnyfytQZV_Jhc-20" edge="1">
          <mxGeometry relative="1" as="geometry">
            <Array as="points">
              <mxPoint x="540" y="1250" />
            </Array>
            <mxPoint x="620" y="1249" as="targetPoint" />
          </mxGeometry>
        </mxCell>
        <mxCell id="TDcTn4Fuq33Ib6oFSJA6-19" value="&lt;font style=&quot;font-size: 12px;&quot;&gt;содержит&lt;/font&gt;" style="edgeLabel;html=1;align=center;verticalAlign=middle;resizable=0;points=[];" parent="nY40BCKHnyfytQZV_Jhc-67" vertex="1" connectable="0">
          <mxGeometry x="-0.0314" relative="1" as="geometry">
            <mxPoint y="-14" as="offset" />
          </mxGeometry>
        </mxCell>
        <mxCell id="nY40BCKHnyfytQZV_Jhc-20" value="Order_id" style="swimlane;fontStyle=0;childLayout=stackLayout;horizontal=1;startSize=26;horizontalStack=0;resizeParent=1;resizeParentMax=0;resizeLast=0;collapsible=1;marginBottom=0;align=center;fontSize=14;" parent="1" vertex="1">
          <mxGeometry x="335" y="1185" width="180" height="176" as="geometry" />
        </mxCell>
        <mxCell id="nY40BCKHnyfytQZV_Jhc-49" value="order-date&amp;nbsp;&lt;span style=&quot;background-color: initial;&quot;&gt;Дата заказа&lt;/span&gt;&lt;div&gt;&lt;span style=&quot;background-color: initial;&quot;&gt;&lt;br&gt;&lt;/span&gt;&lt;/div&gt;" style="text;strokeColor=none;fillColor=none;spacingLeft=4;spacingRight=4;overflow=hidden;rotatable=0;points=[[0,0.5],[1,0.5]];portConstraint=eastwest;fontSize=12;whiteSpace=wrap;html=1;" parent="nY40BCKHnyfytQZV_Jhc-20" vertex="1">
          <mxGeometry y="26" width="180" height="30" as="geometry" />
        </mxCell>
        <mxCell id="nY40BCKHnyfytQZV_Jhc-22" value="order-date&amp;nbsp;&lt;span style=&quot;background-color: initial;&quot;&gt;Дата заказа&lt;/span&gt;&lt;div&gt;&lt;span style=&quot;background-color: initial;&quot;&gt;&lt;br&gt;&lt;/span&gt;&lt;/div&gt;" style="text;strokeColor=none;fillColor=none;spacingLeft=4;spacingRight=4;overflow=hidden;rotatable=0;points=[[0,0.5],[1,0.5]];portConstraint=eastwest;fontSize=12;whiteSpace=wrap;html=1;" parent="nY40BCKHnyfytQZV_Jhc-20" vertex="1">
          <mxGeometry y="56" width="180" height="30" as="geometry" />
        </mxCell>
        <mxCell id="uYUKjCt_YmLunsch3mxF-6" value="order-amount&amp;nbsp;&lt;span style=&quot;background-color: initial;&quot;&gt;Сумма заказа&lt;/span&gt;&lt;div&gt;&lt;span style=&quot;background-color: initial;&quot;&gt;&lt;br&gt;&lt;/span&gt;&lt;/div&gt;" style="text;strokeColor=none;fillColor=none;spacingLeft=4;spacingRight=4;overflow=hidden;rotatable=0;points=[[0,0.5],[1,0.5]];portConstraint=eastwest;fontSize=12;whiteSpace=wrap;html=1;" parent="nY40BCKHnyfytQZV_Jhc-20" vertex="1">
          <mxGeometry y="86" width="180" height="30" as="geometry" />
        </mxCell>
        <mxCell id="uYUKjCt_YmLunsch3mxF-7" value="&lt;div&gt;&lt;span style=&quot;text-align: center; text-wrap-mode: nowrap;&quot;&gt;&lt;font style=&quot;font-size: 12px;&quot;&gt;FK ID пользователя&lt;/font&gt;&lt;/span&gt;&lt;span style=&quot;background-color: initial;&quot;&gt;&lt;/span&gt;&lt;/div&gt;" style="text;strokeColor=none;fillColor=none;spacingLeft=4;spacingRight=4;overflow=hidden;rotatable=0;points=[[0,0.5],[1,0.5]];portConstraint=eastwest;fontSize=12;whiteSpace=wrap;html=1;" parent="nY40BCKHnyfytQZV_Jhc-20" vertex="1">
          <mxGeometry y="116" width="180" height="30" as="geometry" />
        </mxCell>
        <mxCell id="nY40BCKHnyfytQZV_Jhc-23" value="&lt;div&gt;&lt;font style=&quot;font-size: 12px;&quot;&gt;&lt;span style=&quot;text-align: center; text-wrap-mode: nowrap;&quot;&gt;&lt;font style=&quot;&quot;&gt;FK&amp;nbsp;&lt;/font&gt;&lt;/span&gt;&lt;span style=&quot;text-align: center; text-wrap-mode: nowrap; background-color: initial;&quot;&gt;ID Менеджера&lt;/span&gt;&lt;/font&gt;&lt;/div&gt;" style="text;strokeColor=none;fillColor=none;spacingLeft=4;spacingRight=4;overflow=hidden;rotatable=0;points=[[0,0.5],[1,0.5]];portConstraint=eastwest;fontSize=12;whiteSpace=wrap;html=1;" parent="nY40BCKHnyfytQZV_Jhc-20" vertex="1">
          <mxGeometry y="146" width="180" height="30" as="geometry" />
        </mxCell>
        <mxCell id="nY40BCKHnyfytQZV_Jhc-25" value="Product_id" style="swimlane;fontStyle=0;childLayout=stackLayout;horizontal=1;startSize=22;horizontalStack=0;resizeParent=1;resizeParentMax=0;resizeLast=0;collapsible=1;marginBottom=0;align=center;fontSize=14;" parent="1" vertex="1">
          <mxGeometry x="620" y="1208" width="180" height="166" as="geometry" />
        </mxCell>
        <mxCell id="nY40BCKHnyfytQZV_Jhc-27" value="name (&lt;span style=&quot;background-color: initial;&quot;&gt;Название)&lt;/span&gt;&lt;div&gt;&lt;span style=&quot;background-color: initial;&quot;&gt;&lt;br&gt;&lt;/span&gt;&lt;/div&gt;" style="text;strokeColor=none;fillColor=none;spacingLeft=4;spacingRight=4;overflow=hidden;rotatable=0;points=[[0,0.5],[1,0.5]];portConstraint=eastwest;fontSize=12;whiteSpace=wrap;html=1;" parent="nY40BCKHnyfytQZV_Jhc-25" vertex="1">
          <mxGeometry y="22" width="180" height="30" as="geometry" />
        </mxCell>
        <mxCell id="nY40BCKHnyfytQZV_Jhc-28" value="price (Цена)&lt;div&gt;&lt;span style=&quot;background-color: initial;&quot;&gt;&lt;br&gt;&lt;/span&gt;&lt;/div&gt;" style="text;strokeColor=none;fillColor=none;spacingLeft=4;spacingRight=4;overflow=hidden;rotatable=0;points=[[0,0.5],[1,0.5]];portConstraint=eastwest;fontSize=12;whiteSpace=wrap;html=1;" parent="nY40BCKHnyfytQZV_Jhc-25" vertex="1">
          <mxGeometry y="52" width="180" height="34" as="geometry" />
        </mxCell>
        <mxCell id="nY40BCKHnyfytQZV_Jhc-29" value="description (Описание)&lt;div&gt;&lt;span style=&quot;background-color: initial;&quot;&gt;&lt;br&gt;&lt;/span&gt;&lt;/div&gt;" style="text;strokeColor=none;fillColor=none;spacingLeft=4;spacingRight=4;overflow=hidden;rotatable=0;points=[[0,0.5],[1,0.5]];portConstraint=eastwest;fontSize=12;whiteSpace=wrap;html=1;" parent="nY40BCKHnyfytQZV_Jhc-25" vertex="1">
          <mxGeometry y="86" width="180" height="40" as="geometry" />
        </mxCell>
        <mxCell id="uYUKjCt_YmLunsch3mxF-9" value="&lt;div&gt;&lt;font style=&quot;font-size: 12px;&quot;&gt;&lt;span style=&quot;text-align: center; text-wrap-mode: nowrap;&quot;&gt;Fk ID&amp;nbsp;&lt;/span&gt;&lt;span style=&quot;text-align: center; text-wrap-mode: nowrap; background-color: initial;&quot;&gt;корзины&lt;/span&gt;&lt;/font&gt;&lt;/div&gt;" style="text;strokeColor=none;fillColor=none;spacingLeft=4;spacingRight=4;overflow=hidden;rotatable=0;points=[[0,0.5],[1,0.5]];portConstraint=eastwest;fontSize=12;whiteSpace=wrap;html=1;" parent="nY40BCKHnyfytQZV_Jhc-25" vertex="1">
          <mxGeometry y="126" width="180" height="40" as="geometry" />
        </mxCell>
        <mxCell id="nY40BCKHnyfytQZV_Jhc-30" value="ID категории" style="swimlane;fontStyle=0;childLayout=stackLayout;horizontal=1;startSize=26;horizontalStack=0;resizeParent=1;resizeParentMax=0;resizeLast=0;collapsible=1;marginBottom=0;align=center;fontSize=14;" parent="1" vertex="1">
          <mxGeometry x="900" y="1240" width="160" height="106" as="geometry" />
        </mxCell>
        <mxCell id="nY40BCKHnyfytQZV_Jhc-32" value="name (Название категории)&lt;div&gt;&lt;br&gt;&lt;/div&gt;" style="text;strokeColor=none;fillColor=none;spacingLeft=4;spacingRight=4;overflow=hidden;rotatable=0;points=[[0,0.5],[1,0.5]];portConstraint=eastwest;fontSize=12;whiteSpace=wrap;html=1;" parent="nY40BCKHnyfytQZV_Jhc-30" vertex="1">
          <mxGeometry y="26" width="160" height="40" as="geometry" />
        </mxCell>
        <mxCell id="uYUKjCt_YmLunsch3mxF-11" value="&lt;div&gt;FK ID&amp;nbsp;&lt;span style=&quot;text-align: center; text-wrap-mode: nowrap; background-color: initial;&quot;&gt;&lt;font style=&quot;font-size: 12px;&quot;&gt;продукта&lt;/font&gt;&lt;/span&gt;&lt;/div&gt;" style="text;strokeColor=none;fillColor=none;spacingLeft=4;spacingRight=4;overflow=hidden;rotatable=0;points=[[0,0.5],[1,0.5]];portConstraint=eastwest;fontSize=12;whiteSpace=wrap;html=1;" parent="nY40BCKHnyfytQZV_Jhc-30" vertex="1">
          <mxGeometry y="66" width="160" height="40" as="geometry" />
        </mxCell>
        <mxCell id="nY40BCKHnyfytQZV_Jhc-34" value="Payment_id" style="swimlane;fontStyle=0;childLayout=stackLayout;horizontal=1;startSize=26;horizontalStack=0;resizeParent=1;resizeParentMax=0;resizeLast=0;collapsible=1;marginBottom=0;align=center;fontSize=14;" parent="1" vertex="1">
          <mxGeometry x="-210" y="1190" width="140" height="124" as="geometry" />
        </mxCell>
        <mxCell id="nY40BCKHnyfytQZV_Jhc-35" value="method (&lt;span style=&quot;background-color: initial;&quot;&gt;Метод оплаты)&lt;/span&gt;&lt;div&gt;&lt;br&gt;&lt;div&gt;&lt;span style=&quot;background-color: initial;&quot;&gt;&lt;br&gt;&lt;/span&gt;&lt;/div&gt;&lt;/div&gt;" style="text;strokeColor=none;fillColor=none;spacingLeft=4;spacingRight=4;overflow=hidden;rotatable=0;points=[[0,0.5],[1,0.5]];portConstraint=eastwest;fontSize=12;whiteSpace=wrap;html=1;" parent="nY40BCKHnyfytQZV_Jhc-34" vertex="1">
          <mxGeometry y="26" width="140" height="30" as="geometry" />
        </mxCell>
        <mxCell id="nY40BCKHnyfytQZV_Jhc-36" value="amount (Сумма)&lt;div&gt;&lt;br&gt;&lt;/div&gt;" style="text;strokeColor=none;fillColor=none;spacingLeft=4;spacingRight=4;overflow=hidden;rotatable=0;points=[[0,0.5],[1,0.5]];portConstraint=eastwest;fontSize=12;whiteSpace=wrap;html=1;" parent="nY40BCKHnyfytQZV_Jhc-34" vertex="1">
          <mxGeometry y="56" width="140" height="34" as="geometry" />
        </mxCell>
        <mxCell id="uYUKjCt_YmLunsch3mxF-1" value="&lt;div&gt;FK&amp;nbsp;&amp;nbsp;&lt;span style=&quot;font-size: 14px; text-align: center; text-wrap-mode: nowrap; background-color: initial;&quot;&gt;ID пользователя&lt;/span&gt;&lt;/div&gt;" style="text;strokeColor=none;fillColor=none;spacingLeft=4;spacingRight=4;overflow=hidden;rotatable=0;points=[[0,0.5],[1,0.5]];portConstraint=eastwest;fontSize=12;whiteSpace=wrap;html=1;" parent="nY40BCKHnyfytQZV_Jhc-34" vertex="1">
          <mxGeometry y="90" width="140" height="34" as="geometry" />
        </mxCell>
        <mxCell id="nY40BCKHnyfytQZV_Jhc-66" style="edgeStyle=orthogonalEdgeStyle;rounded=0;orthogonalLoop=1;jettySize=auto;html=1;startArrow=ERmany;startFill=0;endArrow=oval;endFill=1;entryX=0.465;entryY=1.063;entryDx=0;entryDy=0;entryPerimeter=0;" parent="1" source="nY40BCKHnyfytQZV_Jhc-37" target="TDcTn4Fuq33Ib6oFSJA6-15" edge="1">
          <mxGeometry relative="1" as="geometry">
            <Array as="points">
              <mxPoint x="119" y="1360" />
            </Array>
          </mxGeometry>
        </mxCell>
        <mxCell id="TDcTn4Fuq33Ib6oFSJA6-22" value="&lt;font style=&quot;font-size: 12px;&quot;&gt;имеет&lt;/font&gt;" style="edgeLabel;html=1;align=center;verticalAlign=middle;resizable=0;points=[];" parent="nY40BCKHnyfytQZV_Jhc-66" vertex="1" connectable="0">
          <mxGeometry x="-0.1267" y="3" relative="1" as="geometry">
            <mxPoint y="-7" as="offset" />
          </mxGeometry>
        </mxCell>
        <mxCell id="nY40BCKHnyfytQZV_Jhc-37" value="Address_id" style="swimlane;fontStyle=0;childLayout=stackLayout;horizontal=1;startSize=26;horizontalStack=0;resizeParent=1;resizeParentMax=0;resizeLast=0;collapsible=1;marginBottom=0;align=center;fontSize=14;" parent="1" vertex="1">
          <mxGeometry x="-210" y="1338" width="130" height="124" as="geometry" />
        </mxCell>
        <mxCell id="nY40BCKHnyfytQZV_Jhc-39" value="city (&lt;span style=&quot;background-color: initial;&quot;&gt;Город)&lt;/span&gt;&lt;div&gt;&lt;span style=&quot;background-color: initial;&quot;&gt;&lt;br&gt;&lt;/span&gt;&lt;/div&gt;" style="text;strokeColor=none;fillColor=none;spacingLeft=4;spacingRight=4;overflow=hidden;rotatable=0;points=[[0,0.5],[1,0.5]];portConstraint=eastwest;fontSize=12;whiteSpace=wrap;html=1;" parent="nY40BCKHnyfytQZV_Jhc-37" vertex="1">
          <mxGeometry y="26" width="130" height="30" as="geometry" />
        </mxCell>
        <mxCell id="nY40BCKHnyfytQZV_Jhc-40" value="country (Страна)&lt;div&gt;&lt;span style=&quot;background-color: initial;&quot;&gt;&lt;br&gt;&lt;/span&gt;&lt;/div&gt;" style="text;strokeColor=none;fillColor=none;spacingLeft=4;spacingRight=4;overflow=hidden;rotatable=0;points=[[0,0.5],[1,0.5]];portConstraint=eastwest;fontSize=12;whiteSpace=wrap;html=1;" parent="nY40BCKHnyfytQZV_Jhc-37" vertex="1">
          <mxGeometry y="56" width="130" height="34" as="geometry" />
        </mxCell>
        <mxCell id="uYUKjCt_YmLunsch3mxF-2" value="FK&amp;nbsp;&amp;nbsp;&lt;span style=&quot;text-wrap-mode: nowrap; background-color: initial; font-size: 14px; text-align: center;&quot;&gt;ID пользователя&lt;/span&gt;" style="text;strokeColor=none;fillColor=none;spacingLeft=4;spacingRight=4;overflow=hidden;rotatable=0;points=[[0,0.5],[1,0.5]];portConstraint=eastwest;fontSize=12;whiteSpace=wrap;html=1;" parent="nY40BCKHnyfytQZV_Jhc-37" vertex="1">
          <mxGeometry y="90" width="130" height="34" as="geometry" />
        </mxCell>
        <mxCell id="nY40BCKHnyfytQZV_Jhc-42" value="Detail_id" style="swimlane;fontStyle=0;childLayout=stackLayout;horizontal=1;startSize=30;horizontalStack=0;resizeParent=1;resizeParentMax=0;resizeLast=0;collapsible=1;marginBottom=0;align=center;fontSize=14;spacingTop=1;" parent="1" vertex="1">
          <mxGeometry x="317.5" y="1650" width="220" height="132" as="geometry" />
        </mxCell>
        <mxCell id="nY40BCKHnyfytQZV_Jhc-44" value="status (Статус)&lt;div&gt;&lt;br&gt;&lt;/div&gt;" style="text;strokeColor=none;fillColor=none;spacingLeft=4;spacingRight=4;overflow=hidden;rotatable=0;points=[[0,0.5],[1,0.5]];portConstraint=eastwest;fontSize=12;whiteSpace=wrap;html=1;" parent="nY40BCKHnyfytQZV_Jhc-42" vertex="1">
          <mxGeometry y="30" width="220" height="34" as="geometry" />
        </mxCell>
        <mxCell id="uYUKjCt_YmLunsch3mxF-4" value="&lt;div&gt;&lt;span style=&quot;text-wrap-mode: nowrap; text-align: center;&quot;&gt;FK&amp;nbsp;&lt;/span&gt;&lt;span style=&quot;text-wrap-mode: nowrap; background-color: initial; text-align: center;&quot;&gt;ID Менеджера&lt;/span&gt;&lt;/div&gt;" style="text;strokeColor=none;fillColor=none;spacingLeft=4;spacingRight=4;overflow=hidden;rotatable=0;points=[[0,0.5],[1,0.5]];portConstraint=eastwest;fontSize=12;whiteSpace=wrap;html=1;" parent="nY40BCKHnyfytQZV_Jhc-42" vertex="1">
          <mxGeometry y="64" width="220" height="34" as="geometry" />
        </mxCell>
        <mxCell id="uYUKjCt_YmLunsch3mxF-5" value="&lt;div&gt;FK ID заказа&lt;/div&gt;" style="text;strokeColor=none;fillColor=none;spacingLeft=4;spacingRight=4;overflow=hidden;rotatable=0;points=[[0,0.5],[1,0.5]];portConstraint=eastwest;fontSize=12;whiteSpace=wrap;html=1;" parent="nY40BCKHnyfytQZV_Jhc-42" vertex="1">
          <mxGeometry y="98" width="220" height="34" as="geometry" />
        </mxCell>
        <mxCell id="nY40BCKHnyfytQZV_Jhc-45" value="Bucket_id" style="swimlane;fontStyle=0;childLayout=stackLayout;horizontal=1;startSize=26;horizontalStack=0;resizeParent=1;resizeParentMax=0;resizeLast=0;collapsible=1;marginBottom=0;align=center;fontSize=14;" parent="1" vertex="1">
          <mxGeometry x="615" y="1440" width="190" height="94" as="geometry" />
        </mxCell>
        <mxCell id="nY40BCKHnyfytQZV_Jhc-47" value="p-id (&lt;span style=&quot;background-color: initial;&quot;&gt;ID&amp;nbsp;&lt;/span&gt;&lt;span style=&quot;font-size: 14px; text-align: center; text-wrap-mode: nowrap;&quot;&gt;продукта&lt;/span&gt;)&lt;div&gt;&lt;br&gt;&lt;/div&gt;" style="text;strokeColor=none;fillColor=none;spacingLeft=4;spacingRight=4;overflow=hidden;rotatable=0;points=[[0,0.5],[1,0.5]];portConstraint=eastwest;fontSize=12;whiteSpace=wrap;html=1;" parent="nY40BCKHnyfytQZV_Jhc-45" vertex="1">
          <mxGeometry y="26" width="190" height="34" as="geometry" />
        </mxCell>
        <mxCell id="uYUKjCt_YmLunsch3mxF-10" value="&lt;div&gt;&lt;span style=&quot;text-align: center; text-wrap-mode: nowrap;&quot;&gt;&lt;font style=&quot;font-size: 12px;&quot;&gt;FK ID продукта&lt;/font&gt;&lt;/span&gt;&lt;/div&gt;" style="text;strokeColor=none;fillColor=none;spacingLeft=4;spacingRight=4;overflow=hidden;rotatable=0;points=[[0,0.5],[1,0.5]];portConstraint=eastwest;fontSize=12;whiteSpace=wrap;html=1;" parent="nY40BCKHnyfytQZV_Jhc-45" vertex="1">
          <mxGeometry y="60" width="190" height="34" as="geometry" />
        </mxCell>
        <mxCell id="nY40BCKHnyfytQZV_Jhc-48" value="" style="edgeStyle=entityRelationEdgeStyle;fontSize=12;html=1;endArrow=ERoneToMany;rounded=0;exitX=0;exitY=0.69;exitDx=0;exitDy=0;exitPerimeter=0;entryX=1;entryY=0.8;entryDx=0;entryDy=0;startArrow=oval;startFill=1;entryPerimeter=0;" parent="1" source="nY40BCKHnyfytQZV_Jhc-49" target="nY40BCKHnyfytQZV_Jhc-18" edge="1">
          <mxGeometry width="100" height="100" relative="1" as="geometry">
            <mxPoint x="260" y="1320" as="sourcePoint" />
            <mxPoint x="340" y="1430" as="targetPoint" />
            <Array as="points">
              <mxPoint x="210" y="1260" />
            </Array>
          </mxGeometry>
        </mxCell>
        <mxCell id="TDcTn4Fuq33Ib6oFSJA6-18" value="&lt;font style=&quot;font-size: 12px;&quot;&gt;создаёт&lt;/font&gt;" style="edgeLabel;html=1;align=center;verticalAlign=middle;resizable=0;points=[];" parent="nY40BCKHnyfytQZV_Jhc-48" vertex="1" connectable="0">
          <mxGeometry x="0.0656" y="-3" relative="1" as="geometry">
            <mxPoint y="-6" as="offset" />
          </mxGeometry>
        </mxCell>
        <mxCell id="nY40BCKHnyfytQZV_Jhc-50" value="" style="edgeStyle=entityRelationEdgeStyle;fontSize=12;html=1;endArrow=ERoneToMany;rounded=0;exitX=0;exitY=0.25;exitDx=0;exitDy=0;entryX=1;entryY=0.5;entryDx=0;entryDy=0;startArrow=oval;startFill=1;" parent="1" source="nY40BCKHnyfytQZV_Jhc-16" target="nY40BCKHnyfytQZV_Jhc-35" edge="1">
          <mxGeometry width="100" height="100" relative="1" as="geometry">
            <mxPoint y="1370" as="sourcePoint" />
            <mxPoint x="-60" y="1260" as="targetPoint" />
            <Array as="points">
              <mxPoint y="1226" />
              <mxPoint x="-90" y="1220" />
              <mxPoint x="-100" y="1226" />
              <mxPoint y="1280" />
              <mxPoint y="1300" />
              <mxPoint x="-120" y="1220" />
            </Array>
          </mxGeometry>
        </mxCell>
        <mxCell id="TDcTn4Fuq33Ib6oFSJA6-21" value="выполняет" style="edgeLabel;html=1;align=center;verticalAlign=middle;resizable=0;points=[];" parent="nY40BCKHnyfytQZV_Jhc-50" vertex="1" connectable="0">
          <mxGeometry x="0.1128" y="-3" relative="1" as="geometry">
            <mxPoint y="-11" as="offset" />
          </mxGeometry>
        </mxCell>
        <mxCell id="nY40BCKHnyfytQZV_Jhc-52" value="" style="edgeStyle=entityRelationEdgeStyle;fontSize=12;html=1;endArrow=ERoneToMany;rounded=0;startArrow=oval;startFill=1;" parent="1" source="nY40BCKHnyfytQZV_Jhc-23" target="nY40BCKHnyfytQZV_Jhc-42" edge="1">
          <mxGeometry width="100" height="100" relative="1" as="geometry">
            <mxPoint x="210" y="1319" as="sourcePoint" />
            <mxPoint x="220" y="1510" as="targetPoint" />
            <Array as="points">
              <mxPoint x="20" y="1246" />
              <mxPoint x="-80" y="1246" />
              <mxPoint x="20" y="1300" />
              <mxPoint x="152" y="1400" />
              <mxPoint x="160" y="1410" />
              <mxPoint x="20" y="1320" />
              <mxPoint x="-100" y="1240" />
            </Array>
          </mxGeometry>
        </mxCell>
        <mxCell id="TDcTn4Fuq33Ib6oFSJA6-23" value="имеет" style="edgeLabel;html=1;align=center;verticalAlign=middle;resizable=0;points=[];" parent="nY40BCKHnyfytQZV_Jhc-52" vertex="1" connectable="0">
          <mxGeometry x="0.0059" y="1" relative="1" as="geometry">
            <mxPoint x="-18" as="offset" />
          </mxGeometry>
        </mxCell>
        <mxCell id="nY40BCKHnyfytQZV_Jhc-54" value="" style="edgeStyle=entityRelationEdgeStyle;fontSize=12;html=1;endArrow=ERoneToMany;rounded=0;exitX=0.012;exitY=0.205;exitDx=0;exitDy=0;exitPerimeter=0;" parent="1" source="nY40BCKHnyfytQZV_Jhc-32" target="nY40BCKHnyfytQZV_Jhc-25" edge="1">
          <mxGeometry width="100" height="100" relative="1" as="geometry">
            <mxPoint x="901.44" y="1273.6499999999999" as="sourcePoint" />
            <mxPoint x="950" y="1290" as="targetPoint" />
            <Array as="points">
              <mxPoint x="900" y="1273" />
              <mxPoint x="890" y="1273" />
            </Array>
          </mxGeometry>
        </mxCell>
        <mxCell id="TDcTn4Fuq33Ib6oFSJA6-24" value="&lt;font style=&quot;font-size: 12px;&quot;&gt;принадлежит к&lt;/font&gt;" style="edgeLabel;html=1;align=center;verticalAlign=middle;resizable=0;points=[];" parent="nY40BCKHnyfytQZV_Jhc-54" vertex="1" connectable="0">
          <mxGeometry x="0.2036" y="-3" relative="1" as="geometry">
            <mxPoint x="9" y="-12" as="offset" />
          </mxGeometry>
        </mxCell>
        <mxCell id="nY40BCKHnyfytQZV_Jhc-55" value="" style="edgeStyle=entityRelationEdgeStyle;fontSize=12;html=1;endArrow=ERmany;startArrow=ERmany;rounded=0;" parent="1" source="nY40BCKHnyfytQZV_Jhc-45" target="nY40BCKHnyfytQZV_Jhc-29" edge="1">
          <mxGeometry width="100" height="100" relative="1" as="geometry">
            <mxPoint x="690" y="1470" as="sourcePoint" />
            <mxPoint x="790" y="1370" as="targetPoint" />
            <Array as="points">
              <mxPoint x="820" y="1330" />
            </Array>
          </mxGeometry>
        </mxCell>
        <mxCell id="TDcTn4Fuq33Ib6oFSJA6-25" value="добавляется в" style="edgeLabel;html=1;align=center;verticalAlign=middle;resizable=0;points=[];" parent="nY40BCKHnyfytQZV_Jhc-55" vertex="1" connectable="0">
          <mxGeometry x="0.025" y="-2" relative="1" as="geometry">
            <mxPoint x="-37" y="1" as="offset" />
          </mxGeometry>
        </mxCell>
        <mxCell id="nY40BCKHnyfytQZV_Jhc-64" style="edgeStyle=orthogonalEdgeStyle;rounded=0;orthogonalLoop=1;jettySize=auto;html=1;startArrow=ERmany;startFill=0;endArrow=oval;endFill=1;" parent="1" source="nY40BCKHnyfytQZV_Jhc-57" target="nY40BCKHnyfytQZV_Jhc-23" edge="1">
          <mxGeometry relative="1" as="geometry">
            <Array as="points">
              <mxPoint x="430" y="1400" />
              <mxPoint x="430" y="1400" />
            </Array>
          </mxGeometry>
        </mxCell>
        <mxCell id="TDcTn4Fuq33Ib6oFSJA6-31" value="оформит" style="edgeLabel;html=1;align=center;verticalAlign=middle;resizable=0;points=[];" parent="nY40BCKHnyfytQZV_Jhc-64" vertex="1" connectable="0">
          <mxGeometry x="-0.0174" y="-2" relative="1" as="geometry">
            <mxPoint as="offset" />
          </mxGeometry>
        </mxCell>
        <mxCell id="nY40BCKHnyfytQZV_Jhc-57" value="Manager_id" style="swimlane;fontStyle=0;childLayout=stackLayout;horizontal=1;startSize=26;horizontalStack=0;resizeParent=1;resizeParentMax=0;resizeLast=0;collapsible=1;marginBottom=0;align=center;fontSize=14;" parent="1" vertex="1">
          <mxGeometry x="335" y="1420" width="155" height="116" as="geometry" />
        </mxCell>
        <mxCell id="nY40BCKHnyfytQZV_Jhc-59" value="name (Имя)&lt;div&gt;&lt;br&gt;&lt;/div&gt;" style="text;strokeColor=none;fillColor=none;spacingLeft=4;spacingRight=4;overflow=hidden;rotatable=0;points=[[0,0.5],[1,0.5]];portConstraint=eastwest;fontSize=12;whiteSpace=wrap;html=1;" parent="nY40BCKHnyfytQZV_Jhc-57" vertex="1">
          <mxGeometry y="26" width="155" height="30" as="geometry" />
        </mxCell>
        <mxCell id="nY40BCKHnyfytQZV_Jhc-60" value="email (Электронная почта)&lt;div&gt;&lt;br&gt;&lt;/div&gt;" style="text;strokeColor=none;fillColor=none;spacingLeft=4;spacingRight=4;overflow=hidden;rotatable=0;points=[[0,0.5],[1,0.5]];portConstraint=eastwest;fontSize=12;whiteSpace=wrap;html=1;" parent="nY40BCKHnyfytQZV_Jhc-57" vertex="1">
          <mxGeometry y="56" width="155" height="30" as="geometry" />
        </mxCell>
        <mxCell id="nY40BCKHnyfytQZV_Jhc-62" value="role&amp;nbsp; (Должность)&lt;div&gt;&lt;br&gt;&lt;/div&gt;" style="text;strokeColor=none;fillColor=none;spacingLeft=4;spacingRight=4;overflow=hidden;rotatable=0;points=[[0,0.5],[1,0.5]];portConstraint=eastwest;fontSize=12;whiteSpace=wrap;html=1;" parent="nY40BCKHnyfytQZV_Jhc-57" vertex="1">
          <mxGeometry y="86" width="155" height="30" as="geometry" />
        </mxCell>
        <mxCell id="nY40BCKHnyfytQZV_Jhc-65" style="edgeStyle=orthogonalEdgeStyle;rounded=0;orthogonalLoop=1;jettySize=auto;html=1;endArrow=ERmany;endFill=0;startArrow=ERmany;startFill=0;entryX=0.602;entryY=0.968;entryDx=0;entryDy=0;entryPerimeter=0;" parent="1" source="nY40BCKHnyfytQZV_Jhc-42" target="nY40BCKHnyfytQZV_Jhc-62" edge="1">
          <mxGeometry relative="1" as="geometry">
            <Array as="points" />
          </mxGeometry>
        </mxCell>
        <mxCell id="TDcTn4Fuq33Ib6oFSJA6-29" value="&lt;font style=&quot;font-size: 12px;&quot;&gt;отслеживает&lt;/font&gt;" style="edgeLabel;html=1;align=center;verticalAlign=middle;resizable=0;points=[];" parent="nY40BCKHnyfytQZV_Jhc-65" vertex="1" connectable="0">
          <mxGeometry x="-0.0289" y="1" relative="1" as="geometry">
            <mxPoint x="-1" y="-14" as="offset" />
          </mxGeometry>
        </mxCell>
        <mxCell id="nY40BCKHnyfytQZV_Jhc-68" value="Warehourse_id" style="swimlane;fontStyle=0;childLayout=stackLayout;horizontal=1;startSize=26;horizontalStack=0;resizeParent=1;resizeParentMax=0;resizeLast=0;collapsible=1;marginBottom=0;align=center;fontSize=14;" parent="1" vertex="1">
          <mxGeometry x="630" y="1020" width="180" height="120" as="geometry" />
        </mxCell>
        <mxCell id="nY40BCKHnyfytQZV_Jhc-70" value="location (&lt;span style=&quot;background-color: initial;&quot;&gt;Местоположение&lt;/span&gt;&lt;span style=&quot;background-color: initial;&quot;&gt;)&lt;/span&gt;&lt;div&gt;&lt;div&gt;&lt;span style=&quot;background-color: initial;&quot;&gt;&lt;br&gt;&lt;/span&gt;&lt;/div&gt;&lt;/div&gt;" style="text;strokeColor=none;fillColor=none;spacingLeft=4;spacingRight=4;overflow=hidden;rotatable=0;points=[[0,0.5],[1,0.5]];portConstraint=eastwest;fontSize=12;whiteSpace=wrap;html=1;" parent="nY40BCKHnyfytQZV_Jhc-68" vertex="1">
          <mxGeometry y="26" width="180" height="30" as="geometry" />
        </mxCell>
        <mxCell id="nY40BCKHnyfytQZV_Jhc-71" value="capacity(Вместимость)&lt;div&gt;&lt;span style=&quot;background-color: initial;&quot;&gt;&lt;br&gt;&lt;/span&gt;&lt;/div&gt;" style="text;strokeColor=none;fillColor=none;spacingLeft=4;spacingRight=4;overflow=hidden;rotatable=0;points=[[0,0.5],[1,0.5]];portConstraint=eastwest;fontSize=12;whiteSpace=wrap;html=1;" parent="nY40BCKHnyfytQZV_Jhc-68" vertex="1">
          <mxGeometry y="56" width="180" height="34" as="geometry" />
        </mxCell>
        <mxCell id="uYUKjCt_YmLunsch3mxF-13" value="&lt;div&gt;&lt;font style=&quot;font-size: 12px;&quot;&gt;&lt;span style=&quot;text-align: center; text-wrap-mode: nowrap;&quot;&gt;&lt;font style=&quot;&quot;&gt;FK&amp;nbsp;&lt;/font&gt;&lt;/span&gt;&lt;span style=&quot;text-align: center; text-wrap-mode: nowrap; background-color: initial;&quot;&gt;ID Менеджера&lt;/span&gt;&lt;/font&gt;&lt;/div&gt;" style="text;strokeColor=none;fillColor=none;spacingLeft=4;spacingRight=4;overflow=hidden;rotatable=0;points=[[0,0.5],[1,0.5]];portConstraint=eastwest;fontSize=12;whiteSpace=wrap;html=1;" parent="nY40BCKHnyfytQZV_Jhc-68" vertex="1">
          <mxGeometry y="90" width="180" height="30" as="geometry" />
        </mxCell>
        <mxCell id="nY40BCKHnyfytQZV_Jhc-72" value="WarehouseManager_id" style="swimlane;fontStyle=0;childLayout=stackLayout;horizontal=1;startSize=26;horizontalStack=0;resizeParent=1;resizeParentMax=0;resizeLast=0;collapsible=1;marginBottom=0;align=center;fontSize=14;" parent="1" vertex="1">
          <mxGeometry x="940" y="1020" width="185" height="146" as="geometry" />
        </mxCell>
        <mxCell id="nY40BCKHnyfytQZV_Jhc-74" value="name (Имя)&lt;div&gt;&lt;br&gt;&lt;/div&gt;" style="text;strokeColor=none;fillColor=none;spacingLeft=4;spacingRight=4;overflow=hidden;rotatable=0;points=[[0,0.5],[1,0.5]];portConstraint=eastwest;fontSize=12;whiteSpace=wrap;html=1;" parent="nY40BCKHnyfytQZV_Jhc-72" vertex="1">
          <mxGeometry y="26" width="185" height="30" as="geometry" />
        </mxCell>
        <mxCell id="nY40BCKHnyfytQZV_Jhc-75" value="email (Электронная почта)&lt;div&gt;&lt;br&gt;&lt;/div&gt;" style="text;strokeColor=none;fillColor=none;spacingLeft=4;spacingRight=4;overflow=hidden;rotatable=0;points=[[0,0.5],[1,0.5]];portConstraint=eastwest;fontSize=12;whiteSpace=wrap;html=1;" parent="nY40BCKHnyfytQZV_Jhc-72" vertex="1">
          <mxGeometry y="56" width="185" height="30" as="geometry" />
        </mxCell>
        <mxCell id="uYUKjCt_YmLunsch3mxF-12" value="role&amp;nbsp; (Должность)&lt;div&gt;&lt;br&gt;&lt;/div&gt;" style="text;strokeColor=none;fillColor=none;spacingLeft=4;spacingRight=4;overflow=hidden;rotatable=0;points=[[0,0.5],[1,0.5]];portConstraint=eastwest;fontSize=12;whiteSpace=wrap;html=1;" parent="nY40BCKHnyfytQZV_Jhc-72" vertex="1">
          <mxGeometry y="86" width="185" height="30" as="geometry" />
        </mxCell>
        <mxCell id="nY40BCKHnyfytQZV_Jhc-76" value="&lt;div&gt;&lt;span style=&quot;text-align: center; text-wrap-mode: nowrap;&quot;&gt;&lt;font style=&quot;font-size: 12px;&quot;&gt;FK ID склада&lt;/font&gt;&lt;/span&gt;&lt;/div&gt;" style="text;strokeColor=none;fillColor=none;spacingLeft=4;spacingRight=4;overflow=hidden;rotatable=0;points=[[0,0.5],[1,0.5]];portConstraint=eastwest;fontSize=12;whiteSpace=wrap;html=1;" parent="nY40BCKHnyfytQZV_Jhc-72" vertex="1">
          <mxGeometry y="116" width="185" height="30" as="geometry" />
        </mxCell>
        <mxCell id="nY40BCKHnyfytQZV_Jhc-78" style="edgeStyle=orthogonalEdgeStyle;rounded=0;orthogonalLoop=1;jettySize=auto;html=1;endArrow=oval;endFill=1;startArrow=ERmany;startFill=0;" parent="1" source="nY40BCKHnyfytQZV_Jhc-25" target="uYUKjCt_YmLunsch3mxF-13" edge="1">
          <mxGeometry relative="1" as="geometry">
            <Array as="points">
              <mxPoint x="720" y="1180" />
              <mxPoint x="720" y="1180" />
            </Array>
          </mxGeometry>
        </mxCell>
        <mxCell id="TDcTn4Fuq33Ib6oFSJA6-26" value="&lt;font style=&quot;font-size: 12px;&quot;&gt;Сохраняется в&amp;nbsp;&lt;/font&gt;" style="edgeLabel;html=1;align=center;verticalAlign=middle;resizable=0;points=[];" parent="nY40BCKHnyfytQZV_Jhc-78" vertex="1" connectable="0">
          <mxGeometry x="0.0064" y="-1" relative="1" as="geometry">
            <mxPoint x="72" y="3" as="offset" />
          </mxGeometry>
        </mxCell>
        <mxCell id="nY40BCKHnyfytQZV_Jhc-80" value="" style="edgeStyle=entityRelationEdgeStyle;fontSize=12;html=1;endArrow=ERmandOne;startArrow=ERmandOne;rounded=0;entryX=0;entryY=0.64;entryDx=0;entryDy=0;entryPerimeter=0;" parent="1" source="nY40BCKHnyfytQZV_Jhc-68" edge="1">
          <mxGeometry width="100" height="100" relative="1" as="geometry">
            <mxPoint x="800" y="1160" as="sourcePoint" />
            <mxPoint x="940" y="1065.2" as="targetPoint" />
          </mxGeometry>
        </mxCell>
        <mxCell id="TDcTn4Fuq33Ib6oFSJA6-27" value="&lt;font style=&quot;font-size: 12px;&quot;&gt;Организует&lt;/font&gt;" style="edgeLabel;html=1;align=center;verticalAlign=middle;resizable=0;points=[];" parent="nY40BCKHnyfytQZV_Jhc-80" vertex="1" connectable="0">
          <mxGeometry x="0.0412" y="-2" relative="1" as="geometry">
            <mxPoint y="-17" as="offset" />
          </mxGeometry>
        </mxCell>
        <mxCell id="nY40BCKHnyfytQZV_Jhc-91" style="edgeStyle=orthogonalEdgeStyle;rounded=0;orthogonalLoop=1;jettySize=auto;html=1;startArrow=oval;startFill=1;endArrow=ERmany;endFill=0;" parent="1" source="nY40BCKHnyfytQZV_Jhc-86" target="nY40BCKHnyfytQZV_Jhc-23" edge="1">
          <mxGeometry relative="1" as="geometry">
            <Array as="points">
              <mxPoint x="120" y="1390" />
              <mxPoint x="380" y="1390" />
            </Array>
          </mxGeometry>
        </mxCell>
        <mxCell id="nY40BCKHnyfytQZV_Jhc-86" value="Courier_id" style="swimlane;fontStyle=0;childLayout=stackLayout;horizontal=1;startSize=26;horizontalStack=0;resizeParent=1;resizeParentMax=0;resizeLast=0;collapsible=1;marginBottom=0;align=center;fontSize=14;" parent="1" vertex="1">
          <mxGeometry x="27.5" y="1420" width="162.5" height="176" as="geometry" />
        </mxCell>
        <mxCell id="nY40BCKHnyfytQZV_Jhc-88" value="name (Имя)&lt;div&gt;&lt;br&gt;&lt;/div&gt;" style="text;strokeColor=none;fillColor=none;spacingLeft=4;spacingRight=4;overflow=hidden;rotatable=0;points=[[0,0.5],[1,0.5]];portConstraint=eastwest;fontSize=12;whiteSpace=wrap;html=1;" parent="nY40BCKHnyfytQZV_Jhc-86" vertex="1">
          <mxGeometry y="26" width="162.5" height="30" as="geometry" />
        </mxCell>
        <mxCell id="nY40BCKHnyfytQZV_Jhc-89" value="email (Электронная почта)&lt;div&gt;&lt;br&gt;&lt;/div&gt;" style="text;strokeColor=none;fillColor=none;spacingLeft=4;spacingRight=4;overflow=hidden;rotatable=0;points=[[0,0.5],[1,0.5]];portConstraint=eastwest;fontSize=12;whiteSpace=wrap;html=1;" parent="nY40BCKHnyfytQZV_Jhc-86" vertex="1">
          <mxGeometry y="56" width="162.5" height="30" as="geometry" />
        </mxCell>
        <mxCell id="TDcTn4Fuq33Ib6oFSJA6-16" value="Phone (Номер Телефона)&lt;div&gt;&lt;br&gt;&lt;/div&gt;" style="text;strokeColor=none;fillColor=none;spacingLeft=4;spacingRight=4;overflow=hidden;rotatable=0;points=[[0,0.5],[1,0.5]];portConstraint=eastwest;fontSize=12;whiteSpace=wrap;html=1;" parent="nY40BCKHnyfytQZV_Jhc-86" vertex="1">
          <mxGeometry y="86" width="162.5" height="30" as="geometry" />
        </mxCell>
        <mxCell id="uYUKjCt_YmLunsch3mxF-3" value="Phone (Номер Телефона)&lt;div&gt;&lt;br&gt;&lt;/div&gt;" style="text;strokeColor=none;fillColor=none;spacingLeft=4;spacingRight=4;overflow=hidden;rotatable=0;points=[[0,0.5],[1,0.5]];portConstraint=eastwest;fontSize=12;whiteSpace=wrap;html=1;" parent="nY40BCKHnyfytQZV_Jhc-86" vertex="1">
          <mxGeometry y="116" width="162.5" height="30" as="geometry" />
        </mxCell>
        <mxCell id="uYUKjCt_YmLunsch3mxF-8" value="&lt;div&gt;FK ID заказа&lt;/div&gt;" style="text;strokeColor=none;fillColor=none;spacingLeft=4;spacingRight=4;overflow=hidden;rotatable=0;points=[[0,0.5],[1,0.5]];portConstraint=eastwest;fontSize=12;whiteSpace=wrap;html=1;" parent="nY40BCKHnyfytQZV_Jhc-86" vertex="1">
          <mxGeometry y="146" width="162.5" height="30" as="geometry" />
        </mxCell>
        <mxCell id="TDcTn4Fuq33Ib6oFSJA6-1" value="&lt;span style=&quot;font-size: 14px;&quot;&gt;Address&lt;/span&gt;" style="text;html=1;align=center;verticalAlign=middle;resizable=0;points=[];autosize=1;strokeColor=none;fillColor=none;" parent="1" vertex="1">
          <mxGeometry x="-185" y="1314" width="70" height="30" as="geometry" />
        </mxCell>
        <mxCell id="TDcTn4Fuq33Ib6oFSJA6-2" value="&lt;span style=&quot;font-size: 14px;&quot;&gt;Payment&lt;/span&gt;" style="text;html=1;align=center;verticalAlign=middle;resizable=0;points=[];autosize=1;strokeColor=none;fillColor=none;" parent="1" vertex="1">
          <mxGeometry x="-185" y="1160" width="80" height="30" as="geometry" />
        </mxCell>
        <mxCell id="TDcTn4Fuq33Ib6oFSJA6-3" value="&lt;span style=&quot;font-size: 14px;&quot;&gt;Client&lt;/span&gt;" style="text;html=1;align=center;verticalAlign=middle;resizable=0;points=[];autosize=1;strokeColor=none;fillColor=none;" parent="1" vertex="1">
          <mxGeometry x="90" y="1170" width="60" height="30" as="geometry" />
        </mxCell>
        <mxCell id="TDcTn4Fuq33Ib6oFSJA6-4" value="&lt;span style=&quot;font-size: 14px;&quot;&gt;Courier&lt;/span&gt;" style="text;html=1;align=center;verticalAlign=middle;resizable=0;points=[];autosize=1;strokeColor=none;fillColor=none;" parent="1" vertex="1">
          <mxGeometry x="22.5" y="1390" width="70" height="30" as="geometry" />
        </mxCell>
        <mxCell id="TDcTn4Fuq33Ib6oFSJA6-5" value="&lt;span style=&quot;font-size: 14px;&quot;&gt;Order&lt;/span&gt;" style="text;html=1;align=center;verticalAlign=middle;resizable=0;points=[];autosize=1;strokeColor=none;fillColor=none;" parent="1" vertex="1">
          <mxGeometry x="395" y="1155" width="60" height="30" as="geometry" />
        </mxCell>
        <mxCell id="TDcTn4Fuq33Ib6oFSJA6-6" value="&lt;span style=&quot;font-size: 14px;&quot;&gt;Manager&lt;/span&gt;" style="text;html=1;align=center;verticalAlign=middle;resizable=0;points=[];autosize=1;strokeColor=none;fillColor=none;" parent="1" vertex="1">
          <mxGeometry x="325" y="1390" width="80" height="30" as="geometry" />
        </mxCell>
        <mxCell id="TDcTn4Fuq33Ib6oFSJA6-7" value="&lt;span style=&quot;font-size: 14px;&quot;&gt;Order Detail&lt;/span&gt;" style="text;html=1;align=center;verticalAlign=middle;resizable=0;points=[];autosize=1;strokeColor=none;fillColor=none;" parent="1" vertex="1">
          <mxGeometry x="335" y="1620" width="100" height="30" as="geometry" />
        </mxCell>
        <mxCell id="TDcTn4Fuq33Ib6oFSJA6-8" value="&lt;span style=&quot;font-size: 14px;&quot;&gt;Bucket&lt;/span&gt;" style="text;html=1;align=center;verticalAlign=middle;resizable=0;points=[];autosize=1;strokeColor=none;fillColor=none;" parent="1" vertex="1">
          <mxGeometry x="610" y="1410" width="70" height="30" as="geometry" />
        </mxCell>
        <mxCell id="TDcTn4Fuq33Ib6oFSJA6-10" value="&lt;span style=&quot;font-size: 14px;&quot;&gt;Product&lt;/span&gt;" style="text;html=1;align=center;verticalAlign=middle;resizable=0;points=[];autosize=1;strokeColor=none;fillColor=none;" parent="1" vertex="1">
          <mxGeometry x="615" y="1178" width="70" height="30" as="geometry" />
        </mxCell>
        <mxCell id="TDcTn4Fuq33Ib6oFSJA6-11" value="&lt;span style=&quot;font-size: 14px;&quot;&gt;Warehouse&lt;/span&gt;" style="text;html=1;align=center;verticalAlign=middle;resizable=0;points=[];autosize=1;strokeColor=none;fillColor=none;" parent="1" vertex="1">
          <mxGeometry x="675" y="990" width="90" height="30" as="geometry" />
        </mxCell>
        <mxCell id="TDcTn4Fuq33Ib6oFSJA6-12" value="&lt;span style=&quot;font-size: 14px;&quot;&gt;Warehouse Manager&lt;/span&gt;" style="text;html=1;align=center;verticalAlign=middle;resizable=0;points=[];autosize=1;strokeColor=none;fillColor=none;" parent="1" vertex="1">
          <mxGeometry x="957.5" y="990" width="150" height="30" as="geometry" />
        </mxCell>
        <mxCell id="TDcTn4Fuq33Ib6oFSJA6-13" value="&lt;span style=&quot;font-size: 14px;&quot;&gt;Product category&lt;/span&gt;" style="text;html=1;align=center;verticalAlign=middle;resizable=0;points=[];autosize=1;strokeColor=none;fillColor=none;" parent="1" vertex="1">
          <mxGeometry x="900" y="1210" width="130" height="30" as="geometry" />
        </mxCell>
        <mxCell id="TDcTn4Fuq33Ib6oFSJA6-28" value="выполняет" style="edgeLabel;html=1;align=center;verticalAlign=middle;resizable=0;points=[];" parent="1" vertex="1" connectable="0">
          <mxGeometry x="0.004866164577924437" y="1220.0014063126498" as="geometry">
            <mxPoint x="262" y="159" as="offset" />
          </mxGeometry>
        </mxCell>
      </root>
    </mxGraphModel>
  </diagram>
</mxfile>
